<svg xmlns="http://www.w3.org/2000/svg" width="20" height="21" viewBox="0 0 20 21">
    <g fill="none" fill-rule="evenodd">
        <path fill="#FFF" fill-rule="nonzero" d="M.571 15.333h15.334v-1.916c-.79-.192-2.194-1.15-2.194-5.942 0-3.642-2.522-4.898-4.146-5.345a1.31 1.31 0 0 0 .198-.703C9.763.639 9.083 0 8.27 0c-.812 0-1.492.639-1.492 1.427 0 .255.066.49.198.703-1.624.426-4.146 1.703-4.146 5.345 0 4.792-1.404 5.75-2.194 5.942v1.916H.571zM8.238 17.524c1.107 0 2.03-.95 2.19-2.19h-4.38c.161 1.24 1.083 2.19 2.19 2.19z"/>
        <circle cx="14" cy="15" r="6" fill="#F10"/>
        <text fill="#FFF" font-family="Roboto-Regular, Roboto" font-size="9" letter-spacing="-.88">
            <tspan x="9.326" y="18">10</tspan>
        </text>
    </g>
</svg>
