<svg xmlns="http://www.w3.org/2000/svg" width="18" height="18" viewBox="0 0 18 18">
    <path fill="#89939A" fill-rule="nonzero" d="M7 .09l-.234 2.072A7.266 7.266 0 0 0 4.14 3.657l-1.938-.84-2 3.421 1.711 1.233a7.075 7.075 0 0 0-.164 1.495c0 .513.06 1.012.164 1.495l-1.71 1.233 2 3.421 1.937-.84a7.265 7.265 0 0 0 2.625 1.495L7 17.843h4l.234-2.073a7.265 7.265 0 0 0 2.625-1.495l1.938.84 2-3.421-1.711-1.233c.104-.483.164-.982.164-1.495 0-.513-.06-1.012-.164-1.495l1.71-1.233-2-3.421-1.937.84a7.266 7.266 0 0 0-2.625-1.495L11 .09H7zm2 4.93c2.21 0 4 1.767 4 3.946 0 2.179-1.79 3.945-4 3.945s-4-1.766-4-3.945 1.79-3.945 4-3.945z"/>
</svg>
