<svg xmlns="http://www.w3.org/2000/svg" width="17" height="17" viewBox="0 0 17 17">
    <g fill="#A7B9C6" fill-rule="nonzero">
        <path d="M8.5 17c2.189 0 4.355-.84 6.013-2.496 3.316-3.314 3.316-8.705 0-12.019-3.316-3.313-8.71-3.313-12.026 0-3.316 3.314-3.316 8.705 0 12.019A8.473 8.473 0 0 0 8.5 17zM3.26 3.259A7.401 7.401 0 0 1 8.5 1.094c1.901 0 3.802.729 5.24 2.165a7.397 7.397 0 0 1 0 10.471 7.409 7.409 0 0 1-10.48 0 7.397 7.397 0 0 1 0-10.471z"/>
        <path d="M5.294 12.364c.18 0 .334-.061.462-.163l3.337-2.867c.103-.102.18-.224.18-.346V5.145c0-.285-.283-.509-.642-.509-.36 0-.642.224-.642.509v3.66L4.807 11.51c-.231.203-.231.528.025.711a.764.764 0 0 0 .462.143z"/>
    </g>
</svg>
