<svg xmlns="http://www.w3.org/2000/svg" width="113" height="14" viewBox="0 0 113 14">
    <g fill="#FFF" fill-rule="nonzero">
        <path d="M5.971 13.743H4.718V2.69H0V1.527h10.69V2.69H5.958zM15.27 13.743h-1.527V1.527h1.527zM32.068 13.743h-1.243V3.965l-4.343 6.737h-1.058l-4.33-6.712v9.74H19.85V1.817l1.083-.276 5.032 7.729 4.994-7.742 1.108.277zM44.284 13.743h-9.162V1.527h9.162v1.174H36.31v4.404h7.614V8.28H36.31v4.25h7.974zM52.711 13.743c-1.068 0-4.627-.199-5.327-2.774l-.046-.187 1.068-.31.046.174c.23.796 1.262 1.729 3.467 1.928.241.037.54.05.804.05.482 0 1.71-.05 2.744-.548.918-.448 1.389-1.094 1.389-1.953 0-1.555-1.619-1.804-4.087-2.003-2.423-.199-5.156-.423-5.156-3.197 0-2.326 2.595-3.073 3.399-3.247.517-.1 1.045-.149 1.527-.149 1.55 0 4.26.311 5.029 2.438l.069.174-1.022.411-.058-.174c-.401-1.132-1.745-1.704-3.984-1.704-.057 0-.126 0-.183.012-.08 0-.161.012-.23.012-2.02.15-3.031 1.033-3.272 1.754l-.012.025a1.182 1.182 0 0 0-.092.473c0 1.568 1.63 1.829 4.122 2.04 2.4.212 5.121.436 5.121 3.135-.046 2.662-2.767 3.62-5.316 3.62zM73.71 13.743l-1.742-3.213H63.95l-1.742 3.213-1.127-.584 6.353-11.632h1.012l6.378 11.632-1.114.584zm-9.132-4.38h6.737l-3.356-6.21-3.381 6.21zM97.718 13.743h-9.15V1.527h9.15v1.174h-7.954v4.404h7.583V8.28h-7.583v4.25h7.966zM107.338 13.743h-5.027V1.527h5.027c1.748 0 3.208.664 4.25 1.915.91 1.11 1.412 2.591 1.412 4.187 0 1.595-.503 3.076-1.412 4.187-1.042 1.263-2.526 1.927-4.25 1.927zm-3.83-1.2h3.83c1.389 0 2.538-.523 3.352-1.531.718-.894 1.113-2.094 1.113-3.396 0-2.374-1.4-4.927-4.465-4.927h-3.83v9.854zM78.912 13.743l-4.088-8.516s.116-.13.316-.305c.178-.165.399-.34.399-.34l3.866 7.975-.493 1.186zM79.535 13.743l-.13-1.934.013-.023 4.998-8.732s.284.035.555.094c.349.082.543.176.543.176l-5.98 10.42zM86.923 2.291c-4.051-1.419-8.832-.71-12.323 2.29l-1.303-2.437c4.143-2.838 9.718-2.838 13.744-.12l-.118.267z"/>
    </g>
</svg>
