<svg xmlns="http://www.w3.org/2000/svg" width="18" height="17" viewBox="0 0 18 17">
    <path fill="#A7B9C6" fill-rule="nonzero" d="M13.745 4.465A4.445 4.445 0 0 0 9.295 0 4.467 4.467 0 0 0 4.82 4.465c0 2.34 2.002 4.554 4.475 7.676 2.474-3.122 4.45-5.335 4.45-7.676zM7.676 4.42c0-.907.764-1.657 1.688-1.657.924 0 1.7.75 1.7 1.657 0 .92-.776 1.67-1.7 1.67-.924 0-1.688-.75-1.688-1.67zm8.657 5.7L13.12 8.89l-3.825 4.772-3.824-4.772-3.213 1.228c-.306.128-.306.128-.357.423l-.943 4.746c-.255 1.33-.255 1.33 1.032.908l3.48-1.164 3.825 1.599 3.825-1.6 3.48 1.165c1.288.422 1.288.422 1.033-.908l-.943-4.746c-.051-.295-.051-.295-.357-.423z"/>
</svg>
