<svg xmlns="http://www.w3.org/2000/svg" width="16" height="18" viewBox="0 0 16 18">
    <g fill="none" fill-rule="nonzero">
        <path fill="#A7B9C6" d="M15.547 1.686h-4.96V.837A.85.85 0 0 0 9.727 0H6.274a.85.85 0 0 0-.862.837v.849H.453a.428.428 0 0 0-.434.421c0 .233.194.421.434.421h.805l.549 13.854c.033.848.745 1.512 1.62 1.512h9.146c.875 0 1.587-.664 1.62-1.512l.549-13.854h.805c.24 0 .434-.188.434-.421a.428.428 0 0 0-.434-.421z"/>
        <path fill="#FFF" d="M5.356 6.346a.428.428 0 0 0-.434-.413h-.008a.427.427 0 0 0-.426.429l.136 6.872c.005.23.198.413.434.413h.009a.427.427 0 0 0 .425-.43l-.136-6.871zM8 5.933a.428.428 0 0 0-.434.42v6.873c0 .232.194.421.434.421s.434-.189.434-.421V6.354A.428.428 0 0 0 8 5.933zM11.086 5.933a.429.429 0 0 0-.442.413l-.136 6.872a.427.427 0 0 0 .434.429c.236 0 .43-.183.434-.413l.136-6.872a.427.427 0 0 0-.426-.43z"/>
    </g>
</svg>
