<svg xmlns="http://www.w3.org/2000/svg" width="16" height="16" viewBox="0 0 16 16">
    <path fill="#D0021B" fill-rule="nonzero" d="M14.777.77a1.013 1.013 0 0 0-1.106.902l-.05.541A7.803 7.803 0 0 0 8.349.194C4.073.194.596 3.584.596 7.75s3.477 7.555 7.752 7.555c2.954 0 5.611-1.6 6.935-4.175a.982.982 0 0 0-.455-1.334 1.033 1.033 0 0 0-1.369.444c-.975 1.898-2.934 3.078-5.111 3.078-3.15 0-5.713-2.498-5.713-5.568 0-3.07 2.563-5.568 5.713-5.568a5.75 5.75 0 0 1 3.918 1.517l-.82-.07a1.013 1.013 0 0 0-1.106.9c-.05.548.364 1.03.925 1.079l3.047.264c.03.002.06.004.09.004.239 0 .47-.082.655-.232a.985.985 0 0 0 .361-.674l.285-3.122A1.001 1.001 0 0 0 14.777.77z"/>
</svg>
