<svg xmlns="http://www.w3.org/2000/svg" width="18" height="18" viewBox="0 0 18 18">
    <path fill="#89939A" fill-rule="nonzero" d="M13.148 10.969a7.116 7.116 0 0 0 1.116-3.83C14.264 3.197 11.072 0 7.134 0A7.136 7.136 0 0 0 0 7.14c0 3.941 3.192 7.138 7.13 7.138 1.43 0 2.76-.422 3.876-1.144l.324-.225L16.42 18 18 16.392l-5.086-5.09.234-.333zm-2.02-7.819a5.599 5.599 0 0 1 1.65 3.984c0 1.505-.586 2.92-1.65 3.985a5.599 5.599 0 0 1-3.984 1.65 5.599 5.599 0 0 1-3.985-1.65 5.599 5.599 0 0 1-1.65-3.985c0-1.504.586-2.92 1.65-3.984A5.599 5.599 0 0 1 7.144 1.5c1.504 0 2.92.586 3.984 1.65z"/>
</svg>
