<svg xmlns="http://www.w3.org/2000/svg" width="7" height="13" viewBox="0 0 7 13">
    <path fill="#89939A" fill-rule="nonzero" d="M7 8.831v1.207c0 .158-.08.376-.177.487l-2.11 2.392a.23.23 0 0 1-.355 0l-2.11-2.392a.847.847 0 0 1-.177-.487V8.83c0-.158.079-.196.176-.086l1.558 1.766c.099.112.176.073.176-.084V6.506c0-.155.11-.285.246-.285h.617c.136 0 .246.128.246.285v3.92c0 .155.079.195.176.085l1.558-1.766c.099-.112.176-.072.176.086zM0 4.17V2.962c0-.158.08-.376.177-.487L2.287.083a.23.23 0 0 1 .355 0l2.11 2.392a.847.847 0 0 1 .177.487V4.17c0 .158-.079.196-.176.086L3.195 2.489c-.099-.112-.176-.073-.176.084v3.921c0 .155-.11.285-.246.285h-.617c-.136 0-.246-.128-.246-.285v-3.92c0-.155-.079-.195-.176-.085L.176 4.255C.077 4.367 0 4.327 0 4.169z"/>
</svg>
